<svg width="323" height="323" viewBox="0 0 323 323" fill="none" xmlns="http://www.w3.org/2000/svg">
<g clip-path="url(#clip0_243_328)">
<path d="M182.029 108.008C236.425 -33.7662 352.555 76.4063 213.845 138.19C352.561 76.4063 356.772 236.425 214.998 182.029C356.772 236.425 246.599 352.555 184.815 213.845C246.599 352.561 86.5802 356.772 140.977 214.998C86.5802 356.772 -29.5497 246.599 109.161 184.815C-29.5553 246.599 -33.7662 86.5802 108.008 140.977C-33.7662 86.5802 76.4063 -29.5497 138.19 109.161C76.4063 -29.5553 236.425 -33.7662 182.029 108.008Z" fill="#9896F1"/>
<path fill-rule="evenodd" clip-rule="evenodd" d="M129.865 31.5236C124.728 48.1518 126.038 73.5407 141.288 107.781C142.05 109.492 141.281 111.496 139.57 112.259C137.859 113.021 135.854 112.251 135.092 110.54C135.087 110.53 135.083 110.519 135.078 110.509C119.831 76.2907 101.84 58.344 86.0487 51.0421C70.3126 43.7659 56.8158 46.9862 49.2249 54.9877C41.634 62.9891 39.1286 76.6363 47.2232 91.9674C55.3489 107.357 74.2274 124.383 109.222 137.811C110.971 138.481 111.845 140.443 111.174 142.192C110.503 143.94 108.541 144.814 106.793 144.143C71.7977 130.716 46.375 130.745 30.0399 136.749C13.7672 142.731 6.50034 154.552 6.79044 165.577C7.08053 176.602 14.9589 188.024 31.5235 193.141C48.1492 198.277 73.5332 196.968 107.766 181.724C107.771 181.722 107.776 181.719 107.781 181.717C109.492 180.955 111.496 181.724 112.258 183.435C113.02 185.146 112.251 187.151 110.54 187.913C76.3017 203.164 58.3461 221.16 51.042 236.957C43.7658 252.693 46.9861 266.19 54.9875 273.78C62.989 281.371 76.6362 283.877 91.9672 275.782C107.357 267.656 124.383 248.778 137.81 213.783C138.481 212.034 140.443 211.161 142.192 211.832C143.94 212.503 144.814 214.464 144.143 216.213C130.716 251.208 130.745 276.63 136.749 292.965C142.731 309.238 154.552 316.505 165.577 316.215C176.602 315.925 188.024 308.046 193.141 291.482C198.276 274.859 196.968 249.479 181.73 215.254C181.726 215.245 181.722 215.235 181.717 215.225C180.955 213.514 181.724 211.509 183.435 210.747C185.146 209.985 187.151 210.754 187.913 212.465C203.163 246.704 221.16 264.659 236.957 271.963C252.693 279.24 266.189 276.019 273.78 268.018C281.371 260.016 283.877 246.369 275.782 231.038C267.656 215.648 248.778 198.622 213.783 185.195C212.034 184.524 211.161 182.562 211.832 180.814C212.502 179.065 214.464 178.191 216.213 178.862C251.207 192.289 276.63 192.261 292.965 186.256C309.238 180.274 316.505 168.454 316.215 157.428C315.925 146.403 308.046 134.982 291.482 129.865C274.854 124.728 249.465 126.038 215.225 141.288C213.514 142.05 211.509 141.281 210.747 139.57C209.985 137.859 210.754 135.854 212.465 135.092C212.472 135.089 212.479 135.086 212.486 135.083C246.711 119.835 264.661 101.842 271.963 86.0488C279.239 70.3127 276.019 56.8159 268.018 49.225C260.016 41.6342 246.369 39.1287 231.038 47.2234C215.648 55.3491 198.622 74.2275 185.195 109.222C184.524 110.971 182.562 111.845 180.814 111.174C179.065 110.503 178.191 108.541 178.862 106.793C192.289 71.7979 192.261 46.3751 186.256 30.0401C180.274 13.7673 168.454 6.50046 157.428 6.79056C146.403 7.08066 134.981 14.959 129.865 31.5236ZM195.186 73.714C198.334 54.8083 196.945 39.4594 192.622 27.6999C185.83 9.22317 171.707 -0.370116 157.25 0.0102783C142.793 0.390673 129.194 10.7134 123.384 29.5218C119.686 41.4927 119.107 56.894 123.246 75.6087C112.103 60.0151 100.267 50.1441 88.8953 44.8858C71.0278 36.624 54.2578 39.8277 44.3043 50.3195C34.3508 60.8114 32.0342 77.7265 41.2253 95.1342C47.075 106.213 57.5554 117.512 73.7139 127.819C54.8082 124.672 39.4593 126.061 27.6998 130.383C9.22305 137.175 -0.370238 151.299 0.0101563 165.755C0.390551 180.212 10.7133 193.811 29.5217 199.621C41.4926 203.319 56.8939 203.898 75.6086 199.76C60.0149 210.903 50.1439 222.738 44.8857 234.11C36.6239 251.978 39.8276 268.748 50.3194 278.701C60.8112 288.655 77.7264 290.971 95.1341 281.78C106.213 275.93 117.512 265.45 127.819 249.291C124.672 268.197 126.06 283.546 130.383 295.306C137.175 313.782 151.298 323.376 165.755 322.995C180.212 322.615 193.811 312.292 199.621 293.484C203.319 281.513 203.898 266.112 199.76 247.397C210.902 262.99 222.738 272.861 234.11 278.12C251.977 286.382 268.747 283.178 278.701 272.686C288.654 262.194 290.971 245.279 281.78 227.871C275.93 216.792 265.45 205.493 249.291 195.187C268.197 198.334 283.546 196.945 295.305 192.622C313.782 185.83 323.375 171.707 322.995 157.25C322.615 142.793 312.292 129.194 293.484 123.384C281.513 119.686 266.111 119.107 247.397 123.246C262.99 112.103 272.861 100.267 278.12 88.8955C286.381 71.0279 283.178 54.2579 272.686 44.3044C262.194 34.3509 245.279 32.0343 227.871 41.2254C216.792 47.0751 205.493 57.5555 195.186 73.714Z" fill="#4D4D4D"/>
<path d="M173.432 130.413C212.618 28.2836 291.845 103.446 191.92 147.952C291.845 103.446 294.722 212.618 192.593 173.432C294.722 212.618 219.559 291.845 175.054 191.92C219.559 291.845 110.387 294.722 149.574 192.593C110.387 294.722 31.1604 219.559 131.085 175.054C31.1604 219.559 28.2835 110.387 130.413 149.574C28.2835 110.387 103.446 31.1605 147.952 131.086C103.446 31.1605 212.618 28.2836 173.432 130.413Z" fill="#D59BF6"/>
<path fill-rule="evenodd" clip-rule="evenodd" d="M141.947 75.3294C138.849 87.0466 140.107 105.137 151.05 129.706C151.812 131.417 151.042 133.421 149.331 134.184C147.621 134.946 145.616 134.176 144.854 132.465C133.911 107.896 121.306 94.8604 110.525 89.3248C99.7626 83.799 91.137 85.7722 86.6546 90.4969C82.1723 95.2217 80.6557 103.939 86.7402 114.396C92.8355 124.871 106.517 136.773 131.628 146.408C133.377 147.079 134.25 149.04 133.579 150.789C132.908 152.537 130.947 153.411 129.198 152.74C104.087 143.105 85.9559 142.801 74.4183 146.51C62.9012 150.213 58.1973 157.708 58.369 164.219C58.5406 170.73 63.6329 177.967 75.3294 181.059C87.0466 184.156 105.137 182.899 129.706 171.956C131.417 171.194 133.421 171.963 134.184 173.674C134.946 175.385 134.176 177.39 132.465 178.152C107.896 189.095 94.8604 201.7 89.3248 212.481C83.799 223.243 85.7722 231.869 90.4969 236.351C95.2217 240.833 103.939 242.35 114.396 236.266C124.871 230.17 136.773 216.489 146.408 191.378C147.079 189.629 149.04 188.755 150.789 189.426C152.537 190.097 153.411 192.059 152.74 193.808C143.105 218.919 142.801 237.05 146.51 248.587C150.213 260.105 157.708 264.808 164.219 264.637C170.73 264.465 177.967 259.373 181.059 247.676C184.156 235.959 182.899 217.869 171.956 193.3C171.194 191.589 171.963 189.584 173.674 188.822C175.385 188.06 177.39 188.829 178.152 190.54C189.095 215.109 201.7 228.145 212.481 233.681C223.243 239.207 231.869 237.234 236.351 232.509C240.833 227.784 242.35 219.067 236.266 208.61C230.17 198.135 216.489 186.233 191.378 176.598C189.629 175.927 188.755 173.966 189.426 172.217C190.097 170.468 192.059 169.595 193.808 170.266C218.919 179.901 237.05 180.205 248.587 176.495C260.105 172.792 264.808 165.298 264.637 158.787C264.465 152.276 259.373 145.038 247.676 141.947C235.959 138.849 217.869 140.107 193.3 151.05C191.589 151.812 189.584 151.042 188.822 149.331C188.06 147.621 188.829 145.616 190.54 144.854C215.109 133.911 228.145 121.306 233.681 110.525C239.207 99.7626 237.234 91.137 232.509 86.6546C227.784 82.1723 219.067 80.6557 208.61 86.7402C198.135 92.8355 186.233 106.517 176.598 131.628C175.927 133.377 173.966 134.25 172.217 133.579C170.468 132.908 169.595 130.947 170.266 129.198C179.901 104.087 180.205 85.9559 176.495 74.4183C172.792 62.9012 165.298 58.1973 158.787 58.369C152.276 58.5406 145.038 63.6329 141.947 75.3294ZM184.746 100.926C186.224 89.4466 185.386 79.9105 182.952 72.3422C178.598 58.7976 168.928 51.3166 158.608 51.5887C148.287 51.8608 139.025 59.8406 135.389 73.5959C133.357 81.282 133.022 90.8493 135.102 102.235C128.031 93.0724 120.695 86.9222 113.623 83.291C100.966 76.7925 88.8394 78.3392 81.734 85.8288C74.6286 93.3184 73.7222 105.51 80.8778 117.807C84.8761 124.678 91.4039 131.68 100.926 138.26C89.4466 136.781 79.9105 137.62 72.3422 140.053C58.7976 144.408 51.3166 154.077 51.5887 164.398C51.8608 174.718 59.8406 183.98 73.5959 187.616C81.282 189.648 90.8493 189.984 102.235 187.903C93.0724 194.975 86.9222 202.311 83.291 209.383C76.7925 222.04 78.3392 234.166 85.8288 241.272C93.3184 248.377 105.51 249.283 117.807 242.128C124.678 238.13 131.68 231.602 138.26 222.079C136.781 233.559 137.62 243.095 140.053 250.663C144.408 264.208 154.077 271.689 164.398 271.417C174.718 271.145 183.98 263.165 187.616 249.41C189.648 241.724 189.984 232.156 187.903 220.77C194.975 229.933 202.311 236.083 209.383 239.715C222.04 246.213 234.166 244.667 241.272 237.177C248.377 229.687 249.283 217.496 242.128 205.199C238.13 198.328 231.602 191.325 222.079 184.746C233.559 186.224 243.095 185.386 250.663 182.952C264.208 178.598 271.689 168.928 271.417 158.608C271.145 148.287 263.165 139.025 249.41 135.389C241.724 133.357 232.156 133.022 220.77 135.102C229.933 128.031 236.083 120.695 239.715 113.623C246.213 100.966 244.667 88.8394 237.177 81.734C229.687 74.6286 217.496 73.7222 205.199 80.8778C198.328 84.8761 191.325 91.4039 184.746 100.926Z" fill="#4D4D4D"/>
<path d="M161.5 190.304C177.408 190.304 190.303 177.408 190.303 161.5C190.303 145.592 177.408 132.696 161.5 132.696C145.592 132.696 132.696 145.592 132.696 161.5C132.696 177.408 145.592 190.304 161.5 190.304Z" fill="#FFBDFF"/>
<path fill-rule="evenodd" clip-rule="evenodd" d="M161.5 136.088C147.465 136.088 136.088 147.465 136.088 161.5C136.088 175.535 147.465 186.912 161.5 186.912C175.535 186.912 186.912 175.535 186.912 161.5C186.912 147.465 175.535 136.088 161.5 136.088ZM129.305 161.5C129.305 143.719 143.719 129.305 161.5 129.305C179.281 129.305 193.695 143.719 193.695 161.5C193.695 179.281 179.281 193.695 161.5 193.695C143.719 193.695 129.305 179.281 129.305 161.5Z" fill="#4D4D4D"/>
<path d="M161.5 175.043C168.979 175.043 175.043 168.979 175.043 161.5C175.043 154.021 168.979 147.957 161.5 147.957C154.021 147.957 147.957 154.021 147.957 161.5C147.957 168.979 154.021 175.043 161.5 175.043Z" fill="#E4FF92"/>
<path fill-rule="evenodd" clip-rule="evenodd" d="M161.5 151.349C155.893 151.349 151.349 155.894 151.349 161.5C151.349 167.106 155.893 171.651 161.5 171.651C167.106 171.651 171.651 167.106 171.651 161.5C171.651 155.894 167.106 151.349 161.5 151.349ZM144.566 161.5C144.566 152.148 152.148 144.566 161.5 144.566C170.852 144.566 178.434 152.148 178.434 161.5C178.434 170.852 170.852 178.434 161.5 178.434C152.148 178.434 144.566 170.852 144.566 161.5Z" fill="#4D4D4D"/>
<path fill-rule="evenodd" clip-rule="evenodd" d="M161.5 100.88C163.373 100.88 164.891 102.399 164.891 104.272V128.859C164.891 130.732 163.373 132.25 161.5 132.25C159.627 132.25 158.109 130.732 158.109 128.859V104.272C158.109 102.399 159.627 100.88 161.5 100.88Z" fill="#4D4D4D"/>
<path fill-rule="evenodd" clip-rule="evenodd" d="M161.5 190.185C163.373 190.185 164.891 191.703 164.891 193.576V218.163C164.891 220.036 163.373 221.554 161.5 221.554C159.627 221.554 158.109 220.036 158.109 218.163V193.576C158.109 191.703 159.627 190.185 161.5 190.185Z" fill="#4D4D4D"/>
<path fill-rule="evenodd" clip-rule="evenodd" d="M204.164 118.553C205.488 119.877 205.488 122.025 204.164 123.349L186.778 140.735C185.453 142.06 183.306 142.06 181.982 140.735C180.657 139.411 180.657 137.264 181.982 135.939L199.368 118.553C200.692 117.229 202.84 117.229 204.164 118.553Z" fill="#4D4D4D"/>
<path fill-rule="evenodd" clip-rule="evenodd" d="M141.018 181.705C142.342 183.03 142.342 185.177 141.017 186.501L123.631 203.882C122.307 205.206 120.159 205.206 118.835 203.881C117.511 202.556 117.511 200.409 118.836 199.085L136.222 181.705C137.547 180.38 139.694 180.381 141.018 181.705Z" fill="#4D4D4D"/>
<path fill-rule="evenodd" clip-rule="evenodd" d="M181.981 181.705C183.306 180.381 185.453 180.38 186.777 181.705L204.164 199.085C205.488 200.409 205.489 202.556 204.164 203.881C202.84 205.206 200.693 205.206 199.368 203.882L181.982 186.501C180.658 185.177 180.657 183.03 181.981 181.705Z" fill="#4D4D4D"/>
<path fill-rule="evenodd" clip-rule="evenodd" d="M118.836 118.553C120.16 117.229 122.307 117.229 123.632 118.553L141.018 135.939C142.342 137.264 142.342 139.411 141.018 140.735C139.693 142.06 137.546 142.06 136.222 140.735L118.836 123.349C117.511 122.025 117.511 119.877 118.836 118.553Z" fill="#4D4D4D"/>
<path fill-rule="evenodd" clip-rule="evenodd" d="M190.445 161.5C190.445 159.627 191.963 158.109 193.836 158.109H218.423C220.296 158.109 221.814 159.627 221.814 161.5C221.814 163.373 220.296 164.891 218.423 164.891H193.836C191.963 164.891 190.445 163.373 190.445 161.5Z" fill="#4D4D4D"/>
<path fill-rule="evenodd" clip-rule="evenodd" d="M101.14 161.5C101.14 159.627 102.658 158.109 104.531 158.109H129.118C130.991 158.109 132.51 159.627 132.51 161.5C132.51 163.373 130.991 164.891 129.118 164.891H104.531C102.658 164.891 101.14 163.373 101.14 161.5Z" fill="#4D4D4D"/>
</g>
<defs>
<clipPath id="clip0_243_328">
<rect width="323" height="323" fill="white"/>
</clipPath>
</defs>
</svg>
