<svg width="561" height="180" viewBox="0 0 561 180" fill="none" xmlns="http://www.w3.org/2000/svg">
<g clip-path="url(#clip0_262_121)">
<path d="M528.186 180C507.996 180 489.874 173.048 474.328 159.334C462.507 148.901 453.722 135.987 445.973 124.593C431.429 103.212 424.803 95.1278 412.743 95.1278C400.682 95.1278 394.056 103.205 379.512 124.593C371.763 135.987 362.978 148.901 351.157 159.334C335.611 173.048 317.489 180 297.299 180C277.11 180 258.988 173.048 243.449 159.334C231.628 148.901 222.843 135.987 215.094 124.593C200.55 103.212 193.924 95.1348 181.871 95.1348C169.817 95.1348 163.184 103.212 148.64 124.6C140.891 135.994 132.106 148.909 120.285 159.341C104.739 173.055 86.6243 180.007 66.4346 180.007C46.2449 180.007 28.123 173.055 12.5838 159.341C0.763535 148.909 -8.02225 135.994 -15.7707 124.6C-30.3148 103.219 -36.9412 95.1419 -48.9943 95.1419C-65.3803 95.1278 -78.6472 81.8311 -78.6472 65.4225C-78.6472 49.0138 -65.3803 35.7171 -49.0084 35.7171C-28.8188 35.7171 -10.6968 42.6696 4.8424 56.3836C16.6626 66.8158 25.4484 79.7305 33.1968 91.1246C47.741 112.505 54.3674 120.582 66.4205 120.582C78.4736 120.582 85.107 112.505 99.6512 91.1175C107.4 79.7234 116.185 66.8087 128.006 56.3765C143.552 42.6625 161.667 35.7101 181.856 35.7101C202.046 35.7101 220.168 42.6625 235.707 56.3765C247.528 66.8087 256.313 79.7234 264.062 91.1175C278.606 112.498 285.232 120.575 297.285 120.575C309.338 120.575 315.972 112.498 330.516 91.1105C338.265 79.7164 347.05 66.8016 358.871 56.3694C374.417 42.6555 392.539 35.703 412.728 35.703C432.918 35.703 451.04 42.6555 466.586 56.3694C478.407 66.8016 487.192 79.7164 494.941 91.1105C509.485 112.491 516.111 120.575 528.172 120.575C544.543 120.575 557.81 133.872 557.81 150.281C557.81 166.689 544.543 179.986 528.172 179.986L528.186 180Z" fill="#4D4D4D"/>
<path d="M529.597 146.051C509.407 146.051 491.285 139.099 475.739 125.385C463.919 114.952 455.133 102.038 447.385 90.6436C432.84 69.2629 426.214 61.1788 414.154 61.1788C402.094 61.1788 395.467 69.2558 380.923 90.6436C373.175 102.038 364.389 114.952 352.569 125.385C337.023 139.099 318.901 146.051 298.711 146.051C278.521 146.051 260.399 139.099 244.86 125.385C233.04 114.952 224.254 102.038 216.506 90.6436C201.962 69.2629 195.335 61.1859 183.282 61.1859C171.229 61.1859 164.595 69.2629 150.051 90.6507C142.303 102.045 133.517 114.96 121.697 125.392C106.151 139.106 88.0357 146.058 67.846 146.058C47.6564 146.058 29.5344 139.106 13.9952 125.392C2.17496 114.96 -6.61082 102.045 -14.3592 90.6507C-28.9034 69.2699 -35.5298 61.1929 -47.5829 61.1929C-63.9548 61.1929 -77.2217 47.8963 -77.2217 31.4876C-77.2217 15.079 -63.9689 1.76817 -47.597 1.76817C-27.4074 1.76817 -9.28536 8.72063 6.25382 22.4346C18.0741 32.8668 26.8598 45.7815 34.6083 57.1756C49.1524 78.5564 55.7788 86.6334 67.8319 86.6334C79.885 86.6334 86.5185 78.5564 101.063 57.1686C108.811 45.7745 117.597 32.8597 129.417 22.4275C144.963 8.71356 163.078 1.7611 183.268 1.7611C203.458 1.7611 221.58 8.71356 237.119 22.4275C248.939 32.8597 257.725 45.7745 265.473 57.1686C280.017 78.5493 286.644 86.6263 298.697 86.6263C310.75 86.6263 317.383 78.5493 331.928 57.1615C339.676 45.7674 348.462 32.8527 360.282 22.4204C375.828 8.70649 393.95 1.75403 414.14 1.75403C434.329 1.75403 452.451 8.70649 467.998 22.4204C479.818 32.8527 488.604 45.7674 496.352 57.1615C510.896 78.5422 517.523 86.6263 529.583 86.6263C545.955 86.6263 559.222 99.923 559.222 116.332C559.222 132.74 545.955 146.037 529.583 146.037L529.597 146.051Z" fill="#9896F1" stroke="#4D4D4D" stroke-width="5" stroke-miterlimit="10"/>
</g>
<defs>
<clipPath id="clip0_262_121">
<rect width="640" height="180" fill="white" transform="translate(-79)"/>
</clipPath>
</defs>
</svg>
